<svg id="Layer_1" data-name="Layer 1" xmlns="http://www.w3.org/2000/svg" viewBox="0 0 334 40"><defs><style>.cls-1{fill:#1e1e1e;}</style></defs><path class="cls-1" d="M159.74,40h-9.08L134.41,80h5.29L144,69.28h22.21L170.53,80H176ZM145.9,64.52,153.78,45h2.68l7.84,19.51Z" transform="translate(-41 -40)"/><path class="cls-1" d="M357.46,63.37V80h-5.21V63.31L334.62,40h6.24l13.95,18.52L368.94,40H375Z" transform="translate(-41 -40)"/><path class="cls-1" d="M123.43,80H90.61V40h32.82v4.71H95.53V57.63h24.58v4.74H95.53V75.29h27.9Z" transform="translate(-41 -40)"/><path class="cls-1" d="M324.44,80H291.62V40h32.82v4.71h-27.9V57.63h24.58v4.74H296.54V75.29h27.9Z" transform="translate(-41 -40)"/><path class="cls-1" d="M274.09,80h-4.48L243,49l0,31h-5.05V40h4.48L269,71V40h5Z" transform="translate(-41 -40)"/><polygon class="cls-1" points="36.23 0 29.38 0 11.94 17.5 5.05 17.5 5.05 0 0 0 0 40 5.05 40 5.05 22.5 11.92 22.5 29.38 40 36.23 40 16.61 20 36.23 0"/><path class="cls-1" d="M224.2,80,210.86,62.29a15.77,15.77,0,0,0,2.85-.38c4.91-1.55,8.1-5.32,8.1-10.74,0-7.28-5-11.17-14-11.17H188.15V80h5V62.37h11.5L218,80Zm-31-35.29h14.51c5.8,0,8.89,2.21,8.89,6.46s-3,6.46-8.89,6.46H193.18Z" transform="translate(-41 -40)"/></svg>